<?xml version="1.0" encoding="utf-8"?>
<!-- Generator: Adobe Illustrator 19.1.0, SVG Export Plug-In . SVG Version: 6.00 Build 0)  -->
<svg version="1.0" id="Layer_1" xmlns="http://www.w3.org/2000/svg" xmlns:xlink="http://www.w3.org/1999/xlink" x="0px" y="0px"
	 viewBox="0 0 32 32" enable-background="new 0 0 32 32" xml:space="preserve">
<rect x="8.4" y="5" transform="matrix(0.7071 0.7071 -0.7071 0.7071 10.6453 -4.2894)" fill="#FFFFFF" width="4.2" height="11.3"/>
<path fill="#FFFFFF" d="M6.7,1.6L1.4,6.9c-0.8,0.7-0.8,2,0,2.7L4,12.2l8-8L9.4,1.6C8.7,0.8,7.4,0.8,6.7,1.6z"/>
<g>
	<path fill="#FFFFFF" d="M25.7,31.2H31v-5.3C28.1,25.9,25.7,28.3,25.7,31.2z"/>
	<path fill="#FFFFFF" d="M31,24.5v-1.3l-15-15l-8,8l15,15h1.3C24.3,27.5,27.3,24.5,31,24.5z"/>
</g>
</svg>
